<?xml version="1.0" encoding="UTF-8"?>
<svg width="203px" height="108px" viewBox="0 0 203 108" version="1.1" xmlns="http://www.w3.org/2000/svg" xmlns:xlink="http://www.w3.org/1999/xlink">
    <!-- Generator: Sketch 47.1 (45422) - http://www.bohemiancoding.com/sketch -->
    <title>Group 10</title>
    <desc>Created with Sketch.</desc>
    <defs></defs>
    <g id="Pivot" stroke="none" stroke-width="1" fill="none" fill-rule="evenodd">
        <g id="Setup-View-[Template]---Choose" transform="translate(-306.000000, -881.000000)">
            <g id="Group-16" transform="translate(0.000000, 80.000000)">
                <g id="Group-15" transform="translate(123.000000, 120.000000)">
                    <g id="Group-14" transform="translate(122.000000, 25.000000)">
                        <g id="ios-snowy" transform="translate(61.000000, 656.000000)">
                            <g id="Group-10">
                                <path d="M18.6901466,78.9479167 L16.5595761,77.759375 C17.0124151,77.3364583 17.5246429,77.0520833 18.0962594,76.8625 C18.4154738,76.7604167 18.5787928,76.4322917 18.4748625,76.1260417 C18.3709322,75.8197917 18.0294471,75.6520833 17.7102327,75.7541667 C16.8490961,76.03125 16.0621955,76.55625 15.4757318,77.1541667 L10.7023629,74.5 L15.4683082,71.8458333 C16.0918898,72.509375 16.8490961,72.96875 17.7102327,73.2458333 C18.0294471,73.3479167 18.3709322,73.1875 18.4748625,72.88125 C18.5787928,72.575 18.4154738,72.246875 18.0962594,72.1447917 C17.5172193,71.9552083 16.9975679,71.6708333 16.5447289,71.2479167 L18.6827231,70.059375 C18.9722431,69.8989583 19.0687498,69.5416667 18.9054308,69.2645833 C18.7421118,68.9875 18.3709322,68.8927083 18.0814122,69.053125 L15.9508416,70.2197917 C15.8023698,69.6291667 15.7949462,69.0604167 15.9137237,68.484375 C15.980536,68.1708333 15.7652518,67.8645833 15.4386138,67.7989583 C15.1119758,67.7333333 14.7927614,67.9375 14.7259491,68.2510417 C14.5477829,69.1114583 14.6220188,70.0302083 14.8595738,70.8177083 L10.0862048,73.49375 L10.0862048,68.1708333 C10.9027998,67.9739583 11.7490892,67.5802083 12.4246359,66.996875 C12.6696144,66.7854167 12.6918852,66.4135417 12.4766011,66.1729167 C12.2613169,65.9322917 11.8901374,65.9104167 11.6377353,66.121875 C11.1923199,66.5083333 10.6800921,66.7927083 10.0862048,66.9604167 L10.0862048,64.5833333 C10.0862048,64.2625 9.81895554,64 9.49231754,64 C9.16567954,64 8.89843027,64.2625 8.89843027,64.5833333 L8.89843027,66.9677083 C8.304543,66.8 7.79973882,66.515625 7.34689977,66.121875 C7.10192127,65.9104167 6.72331814,65.9322917 6.508034,66.1729167 C6.29274987,66.4135417 6.31502064,66.7854167 6.55999914,66.996875 C7.23554591,67.5802083 8.00759936,67.98125 8.89843027,68.1708333 L8.89843027,73.49375 L4.11021414,70.825 C4.34776905,70.0302083 4.42200496,69.1114583 4.25126237,68.2583333 C4.18445005,67.9447917 3.86523565,67.740625 3.53859765,67.80625 C3.21195965,67.871875 3.0040991,68.1708333 3.06348783,68.4916667 C3.18226528,69.0677083 3.18226528,69.6364583 3.02636987,70.2270833 L0.903222881,69.03125 C0.613702836,68.8708333 0.242523292,68.965625 0.0792042923,69.2427083 C-0.0841147072,69.5197917 0.0123919743,69.8770833 0.301912019,70.0375 L2.43990619,71.2260417 C1.98706715,71.6489583 1.47483938,71.9333333 0.89579929,72.1229167 C0.576584882,72.225 0.413265882,72.5604167 0.517196155,72.859375 C0.621126427,73.165625 0.970035199,73.3260417 1.28182602,73.2239583 C2.14296256,72.9395833 2.90016883,72.4875 3.52375046,71.8239583 L8.29711941,74.4854167 L3.51632687,77.146875 C2.92986319,76.5489583 2.13553897,76.03125 1.28182602,75.746875 C0.962611608,75.6447917 0.628550018,75.8125 0.517196155,76.11875 C0.413265882,76.425 0.576584882,76.753125 0.89579929,76.8552083 C1.46741579,77.0447917 1.97964356,77.3291667 2.4324826,77.7520833 L0.301912019,78.940625 C0.0123919743,79.1010417 -0.0841147072,79.4583333 0.0792042923,79.7354167 C0.242523292,80.0125 0.613702836,80.1072917 0.903222881,79.946875 L3.04121706,78.7583333 C3.19711247,79.3489583 3.19711247,79.9177083 3.07091142,80.5010417 C3.0040991,80.8145833 3.21938324,81.1208333 3.54602124,81.1864583 C3.87265924,81.2520833 4.19187364,81.0479167 4.25868596,80.7270833 C4.43685214,79.8666667 4.39973419,79.00625 4.11763774,78.153125 L8.90585386,75.484375 L8.90585386,80.8145833 C8.01502295,81.0041667 7.2429695,81.4052083 6.56742273,81.9885417 C6.32244423,82.2 6.30017346,82.571875 6.51545759,82.8125 C6.73074173,83.053125 7.10192127,83.075 7.35432336,82.8635417 C7.80716241,82.4697917 8.31196659,82.1854167 8.90585386,82.0177083 L8.90585386,84.4166667 C8.90585386,84.7375 9.17310313,85 9.49974113,85 C9.82637913,85 10.0936284,84.7375 10.0936284,84.4166667 L10.0936284,82.0395833 C10.6875157,82.2072917 11.1923199,82.4916667 11.6451589,82.878125 C11.8901374,83.0895833 12.2613169,83.0677083 12.4840247,82.8270833 C12.6993088,82.5864583 12.677038,82.2145833 12.4320595,82.003125 C11.7639364,81.4270833 10.917647,81.0260417 10.101052,80.8291667 L10.101052,75.4989583 L14.8818445,78.1604167 C14.5997481,79.0135417 14.5700537,79.8739583 14.7482199,80.734375 C14.8150322,81.0479167 15.1342466,81.2520833 15.4608846,81.19375 C15.7875226,81.128125 16.0028067,80.821875 15.9359944,80.5083333 C15.817217,79.925 15.817217,79.35625 15.9656888,78.765625 L18.103683,79.9541667 C18.393203,80.1145833 18.7643826,80.0197917 18.9277016,79.7427083 C19.083597,79.465625 18.9796667,79.1083333 18.6901466,78.9479167 Z" id="Shape" fill="#88ECF9" fill-rule="nonzero"></path>
                                <path d="M20.6901466,77.9479167 L18.5595761,76.759375 C19.0124151,76.3364583 19.5246429,76.0520833 20.0962594,75.8625 C20.4154738,75.7604167 20.5787928,75.4322917 20.4748625,75.1260417 C20.3709322,74.8197917 20.0294471,74.6520833 19.7102327,74.7541667 C18.8490961,75.03125 18.0621955,75.55625 17.4757318,76.1541667 L12.7023629,73.5 L17.4683082,70.8458333 C18.0918898,71.509375 18.8490961,71.96875 19.7102327,72.2458333 C20.0294471,72.3479167 20.3709322,72.1875 20.4748625,71.88125 C20.5787928,71.575 20.4154738,71.246875 20.0962594,71.1447917 C19.5172193,70.9552083 18.9975679,70.6708333 18.5447289,70.2479167 L20.6827231,69.059375 C20.9722431,68.8989583 21.0687498,68.5416667 20.9054308,68.2645833 C20.7421118,67.9875 20.3709322,67.8927083 20.0814122,68.053125 L17.9508416,69.2197917 C17.8023698,68.6291667 17.7949462,68.0604167 17.9137237,67.484375 C17.980536,67.1708333 17.7652518,66.8645833 17.4386138,66.7989583 C17.1119758,66.7333333 16.7927614,66.9375 16.7259491,67.2510417 C16.5477829,68.1114583 16.6220188,69.0302083 16.8595738,69.8177083 L12.0862048,72.49375 L12.0862048,67.1708333 C12.9027998,66.9739583 13.7490892,66.5802083 14.4246359,65.996875 C14.6696144,65.7854167 14.6918852,65.4135417 14.4766011,65.1729167 C14.2613169,64.9322917 13.8901374,64.9104167 13.6377353,65.121875 C13.1923199,65.5083333 12.6800921,65.7927083 12.0862048,65.9604167 L12.0862048,63.5833333 C12.0862048,63.2625 11.8189555,63 11.4923175,63 C11.1656795,63 10.8984303,63.2625 10.8984303,63.5833333 L10.8984303,65.9677083 C10.304543,65.8 9.79973882,65.515625 9.34689977,65.121875 C9.10192127,64.9104167 8.72331814,64.9322917 8.508034,65.1729167 C8.29274987,65.4135417 8.31502064,65.7854167 8.55999914,65.996875 C9.23554591,66.5802083 10.0075994,66.98125 10.8984303,67.1708333 L10.8984303,72.49375 L6.11021414,69.825 C6.34776905,69.0302083 6.42200496,68.1114583 6.25126237,67.2583333 C6.18445005,66.9447917 5.86523565,66.740625 5.53859765,66.80625 C5.21195965,66.871875 5.0040991,67.1708333 5.06348783,67.4916667 C5.18226528,68.0677083 5.18226528,68.6364583 5.02636987,69.2270833 L2.90322288,68.03125 C2.61370284,67.8708333 2.24252329,67.965625 2.07920429,68.2427083 C1.91588529,68.5197917 2.01239197,68.8770833 2.30191202,69.0375 L4.43990619,70.2260417 C3.98706715,70.6489583 3.47483938,70.9333333 2.89579929,71.1229167 C2.57658488,71.225 2.41326588,71.5604167 2.51719615,71.859375 C2.62112643,72.165625 2.9700352,72.3260417 3.28182602,72.2239583 C4.14296256,71.9395833 4.90016883,71.4875 5.52375046,70.8239583 L10.2971194,73.4854167 L5.51632687,76.146875 C4.92986319,75.5489583 4.13553897,75.03125 3.28182602,74.746875 C2.96261161,74.6447917 2.62855002,74.8125 2.51719615,75.11875 C2.41326588,75.425 2.57658488,75.753125 2.89579929,75.8552083 C3.46741579,76.0447917 3.97964356,76.3291667 4.4324826,76.7520833 L2.30191202,77.940625 C2.01239197,78.1010417 1.91588529,78.4583333 2.07920429,78.7354167 C2.24252329,79.0125 2.61370284,79.1072917 2.90322288,78.946875 L5.04121706,77.7583333 C5.19711247,78.3489583 5.19711247,78.9177083 5.07091142,79.5010417 C5.0040991,79.8145833 5.21938324,80.1208333 5.54602124,80.1864583 C5.87265924,80.2520833 6.19187364,80.0479167 6.25868596,79.7270833 C6.43685214,78.8666667 6.39973419,78.00625 6.11763774,77.153125 L10.9058539,74.484375 L10.9058539,79.8145833 C10.015023,80.0041667 9.2429695,80.4052083 8.56742273,80.9885417 C8.32244423,81.2 8.30017346,81.571875 8.51545759,81.8125 C8.73074173,82.053125 9.10192127,82.075 9.35432336,81.8635417 C9.80716241,81.4697917 10.3119666,81.1854167 10.9058539,81.0177083 L10.9058539,83.4166667 C10.9058539,83.7375 11.1731031,84 11.4997411,84 C11.8263791,84 12.0936284,83.7375 12.0936284,83.4166667 L12.0936284,81.0395833 C12.6875157,81.2072917 13.1923199,81.4916667 13.6451589,81.878125 C13.8901374,82.0895833 14.2613169,82.0677083 14.4840247,81.8270833 C14.6993088,81.5864583 14.677038,81.2145833 14.4320595,81.003125 C13.7639364,80.4270833 12.917647,80.0260417 12.101052,79.8291667 L12.101052,74.4989583 L16.8818445,77.1604167 C16.5997481,78.0135417 16.5700537,78.8739583 16.7482199,79.734375 C16.8150322,80.0479167 17.1342466,80.2520833 17.4608846,80.19375 C17.7875226,80.128125 18.0028067,79.821875 17.9359944,79.5083333 C17.817217,78.925 17.817217,78.35625 17.9656888,77.765625 L20.103683,78.9541667 C20.393203,79.1145833 20.7643826,79.0197917 20.9277016,78.7427083 C21.083597,78.465625 20.9796667,78.1083333 20.6901466,77.9479167 Z" id="Shape" fill="#010101" fill-rule="nonzero"></path>
                                <path d="M60.543374,24.0659722 L57.4035858,22.3114583 C58.0709275,21.6871528 58.8257895,21.2673611 59.6681717,20.9875 C60.1385929,20.8368056 60.3792736,20.3524306 60.2261132,19.9003472 C60.0729528,19.4482639 59.5697115,19.2006944 59.0992902,19.3513889 C57.8302469,19.7604167 56.6706039,20.5354167 55.8063416,21.4180556 L48.7719032,17.5 L55.7954016,13.5819444 C56.714364,14.5614583 57.8302469,15.2395833 59.0992902,15.6486111 C59.5697115,15.7993056 60.0729528,15.5625 60.2261132,15.1104167 C60.3792736,14.6583333 60.1385929,14.1739583 59.6681717,14.0232639 C58.8148495,13.7434028 58.0490475,13.3236111 57.3817057,12.6993056 L60.532434,10.9447917 C60.9590951,10.7079861 61.1013155,10.1805556 60.8606348,9.77152778 C60.6199542,9.3625 60.0729528,9.22256944 59.6462917,9.459375 L56.5065034,11.1815972 C56.2877029,10.3097222 56.2767628,9.47013889 56.4518033,8.61979167 C56.5502635,8.15694444 56.2330027,7.70486111 55.7516414,7.60798611 C55.2702802,7.51111111 54.799859,7.8125 54.7013987,8.27534722 C54.438838,9.54548611 54.5482383,10.9017361 54.8983192,12.0642361 L47.8638808,16.0145833 L47.8638808,8.15694444 C49.0672839,7.86631944 50.3144472,7.28506944 51.3099898,6.42395833 C51.6710108,6.11180556 51.7038308,5.56284722 51.38657,5.20763889 C51.0693092,4.85243056 50.5223077,4.82013889 50.1503468,5.13229167 C49.493945,5.70277778 48.7390831,6.12256944 47.8638808,6.37013889 L47.8638808,2.86111111 C47.8638808,2.3875 47.4700397,2 46.9886785,2 C46.5073172,2 46.1134762,2.3875 46.1134762,2.86111111 L46.1134762,6.38090278 C45.2382739,6.13333333 44.4943519,5.71354167 43.8270102,5.13229167 C43.4659892,4.82013889 42.9080478,4.85243056 42.5907869,5.20763889 C42.2735261,5.56284722 42.3063462,6.11180556 42.6673672,6.42395833 C43.6629098,7.28506944 44.8006727,7.87708333 46.1134762,8.15694444 L46.1134762,16.0145833 L39.0571577,12.075 C39.4072386,10.9017361 39.5166389,9.54548611 39.2650182,8.28611111 C39.166558,7.82326389 38.6961367,7.521875 38.2147755,7.61875 C37.7334142,7.715625 37.4270934,8.15694444 37.5146136,8.63055556 C37.6896541,9.48090278 37.6896541,10.3204861 37.4599135,11.1923611 L34.3310653,9.42708333 C33.9044042,9.19027778 33.3574027,9.33020833 33.1167221,9.73923611 C32.8760415,10.1482639 33.0182619,10.6756944 33.444923,10.9125 L36.5956512,12.6670139 C35.9283095,13.2913194 35.1734475,13.7111111 34.3201253,13.9909722 C33.849704,14.1416667 33.6090234,14.6368056 33.7621838,15.078125 C33.9153442,15.5302083 34.4295256,15.7670139 34.8890068,15.6163194 C36.1580501,15.1965278 37.273933,14.5291667 38.1928954,13.5496528 L45.2273339,17.4784722 L38.1819554,21.4072917 C37.3176931,20.5246528 36.1471101,19.7604167 34.8890068,19.340625 C34.4185855,19.1899306 33.9262842,19.4375 33.7621838,19.8895833 C33.6090234,20.3416667 33.849704,20.8260417 34.3201253,20.9767361 C35.1625075,21.2565972 35.9173695,21.6763889 36.5847112,22.3006944 L33.444923,24.0552083 C33.0182619,24.2920139 32.8760415,24.8194444 33.1167221,25.2284722 C33.3574027,25.6375 33.9044042,25.7774306 34.3310653,25.540625 L37.4817936,23.7861111 C37.7115342,24.6579861 37.7115342,25.4975694 37.5255537,26.3586806 C37.4270934,26.8215278 37.7443542,27.2736111 38.2257155,27.3704861 C38.7070768,27.4673611 39.177498,27.1659722 39.2759583,26.6923611 C39.5385189,25.4222222 39.4838188,24.1520833 39.0680977,22.8927083 L46.1244162,18.953125 L46.1244162,26.8215278 C44.8116128,27.1013889 43.6738498,27.6934028 42.6783072,28.5545139 C42.3172862,28.8666667 42.2844661,29.415625 42.601727,29.7708333 C42.9189878,30.1260417 43.4659892,30.1583333 43.8379502,29.8461806 C44.505292,29.2649306 45.2492139,28.8451389 46.1244162,28.5975694 L46.1244162,32.1388889 C46.1244162,32.6125 46.5182572,33 46.9996185,33 C47.4809798,33 47.8748208,32.6125 47.8748208,32.1388889 L47.8748208,28.6298611 C48.7500231,28.8774306 49.493945,29.2972222 50.1612868,29.8677083 C50.5223077,30.1798611 51.0693092,30.1475694 51.39751,29.7923611 C51.7147709,29.4371528 51.6819508,28.8881944 51.3209298,28.5760417 C50.3363273,27.7256944 49.089164,27.1336806 47.8857608,26.8430556 L47.8857608,18.9746528 L54.9311393,22.9034722 C54.5154182,24.1628472 54.4716581,25.4329861 54.7342188,26.703125 C54.832679,27.1659722 55.3031003,27.4673611 55.7844615,27.38125 C56.2658228,27.284375 56.5830836,26.8322917 56.4846234,26.3694444 C56.3095829,25.5083333 56.3095829,24.66875 56.5283835,23.796875 L59.6791117,25.5513889 C60.1057729,25.7881944 60.6527743,25.6482639 60.8934549,25.2392361 C61.1231955,24.8302083 60.9700351,24.3027778 60.543374,24.0659722 Z" id="Shape" fill="#88ECF9" fill-rule="nonzero"></path>
                                <g id="Group-6" transform="translate(36.000000, 0.000000)">
                                    <path d="M164.706455,36.2361111 L162.688019,35.1041667 C163.117025,34.7013889 163.602293,34.4305556 164.143825,34.25 C164.446238,34.1527778 164.600962,33.8402778 164.502501,33.5486111 C164.404041,33.2569444 164.080529,33.0972222 163.778115,33.1944444 C162.962302,33.4583333 162.216817,33.9583333 161.66122,34.5277778 L157.139081,32 L161.654187,29.4722222 C162.244948,30.1041667 162.962302,30.5416667 163.778115,30.8055556 C164.080529,30.9027778 164.404041,30.75 164.502501,30.4583333 C164.600962,30.1666667 164.446238,29.8541667 164.143825,29.7569444 C163.59526,29.5763889 163.102959,29.3055556 162.673954,28.9027778 L164.699422,27.7708333 C164.973704,27.6180556 165.065131,27.2777778 164.910408,27.0138889 C164.755685,26.75 164.404041,26.6597222 164.129759,26.8125 L162.111324,27.9236111 C161.970666,27.3611111 161.963633,26.8194444 162.076159,26.2708333 C162.139455,25.9722222 161.935502,25.6805556 161.626055,25.6180556 C161.316609,25.5555556 161.014195,25.75 160.950899,26.0486111 C160.78211,26.8680556 160.852439,27.7430556 161.077491,28.4930556 L156.555352,31.0416667 L156.555352,25.9722222 C157.328968,25.7847222 158.130716,25.4097222 158.770708,24.8541667 C159.002793,24.6527778 159.023891,24.2986111 158.819938,24.0694444 C158.615984,23.8402778 158.264341,23.8194444 158.025223,24.0208333 C157.60325,24.3888889 157.117982,24.6597222 156.555352,24.8194444 L156.555352,22.5555556 C156.555352,22.25 156.302168,22 155.992722,22 C155.683275,22 155.430092,22.25 155.430092,22.5555556 L155.430092,24.8263889 C154.867462,24.6666667 154.389226,24.3958333 153.960221,24.0208333 C153.728136,23.8194444 153.369459,23.8402778 153.165506,24.0694444 C152.961553,24.2986111 152.982651,24.6527778 153.214736,24.8541667 C153.854728,25.4097222 154.586147,25.7916667 155.430092,25.9722222 L155.430092,31.0416667 L150.893887,28.5 C151.118939,27.7430556 151.189268,26.8680556 151.027512,26.0555556 C150.964216,25.7569444 150.661802,25.5625 150.352356,25.625 C150.042909,25.6875 149.845989,25.9722222 149.902252,26.2777778 C150.014778,26.8263889 150.014778,27.3680556 149.867087,27.9305556 L147.855685,26.7916667 C147.581403,26.6388889 147.229759,26.7291667 147.075036,26.9930556 C146.920312,27.2569444 147.01174,27.5972222 147.286022,27.75 L149.31149,28.8819444 C148.882485,29.2847222 148.397216,29.5555556 147.848652,29.7361111 C147.546238,29.8333333 147.391515,30.1527778 147.489975,30.4375 C147.588436,30.7291667 147.918981,30.8819444 148.214361,30.7847222 C149.030175,30.5138889 149.747528,30.0833333 150.33829,29.4513889 L154.860429,31.9861111 L150.331257,34.5208333 C149.77566,33.9513889 149.023142,33.4583333 148.214361,33.1875 C147.911948,33.0902778 147.595468,33.25 147.489975,33.5416667 C147.391515,33.8333333 147.546238,34.1458333 147.848652,34.2430556 C148.390183,34.4236111 148.875452,34.6944444 149.304457,35.0972222 L147.286022,36.2291667 C147.01174,36.3819444 146.920312,36.7222222 147.075036,36.9861111 C147.229759,37.25 147.581403,37.3402778 147.855685,37.1875 L149.881153,36.0555556 C150.028843,36.6180556 150.028843,37.1597222 149.909285,37.7152778 C149.845989,38.0138889 150.049942,38.3055556 150.359389,38.3680556 C150.668835,38.4305556 150.971249,38.2361111 151.034545,37.9305556 C151.203334,37.1111111 151.168169,36.2916667 150.90092,35.4791667 L155.437125,32.9375 L155.437125,38.0138889 C154.59318,38.1944444 153.861761,38.5763889 153.221769,39.1319444 C152.989684,39.3333333 152.968585,39.6875 153.172539,39.9166667 C153.376492,40.1458333 153.728136,40.1666667 153.967254,39.9652778 C154.396259,39.5902778 154.874495,39.3194444 155.437125,39.1597222 L155.437125,41.4444444 C155.437125,41.75 155.690308,42 155.999755,42 C156.309201,42 156.562385,41.75 156.562385,41.4444444 L156.562385,39.1805556 C157.125015,39.3402778 157.60325,39.6111111 158.032256,39.9791667 C158.264341,40.1805556 158.615984,40.1597222 158.826971,39.9305556 C159.030924,39.7013889 159.009826,39.3472222 158.777741,39.1458333 C158.144782,38.5972222 157.343034,38.2152778 156.569418,38.0277778 L156.569418,32.9513889 L161.09859,35.4861111 C160.83134,36.2986111 160.803209,37.1180556 160.971998,37.9375 C161.035294,38.2361111 161.337707,38.4305556 161.647154,38.375 C161.9566,38.3125 162.160554,38.0208333 162.097258,37.7222222 C161.984732,37.1666667 161.984732,36.625 162.125389,36.0625 L164.150858,37.1944444 C164.42514,37.3472222 164.776783,37.2569444 164.931507,36.9930556 C165.079197,36.7291667 164.980737,36.3888889 164.706455,36.2361111 Z" id="Shape" fill="#88ECF9" fill-rule="nonzero"></path>
                                    <path d="M166.706455,35.2361111 L164.688019,34.1041667 C165.117025,33.7013889 165.602293,33.4305556 166.143825,33.25 C166.446238,33.1527778 166.600962,32.8402778 166.502501,32.5486111 C166.404041,32.2569444 166.080529,32.0972222 165.778115,32.1944444 C164.962302,32.4583333 164.216817,32.9583333 163.66122,33.5277778 L159.139081,31 L163.654187,28.4722222 C164.244948,29.1041667 164.962302,29.5416667 165.778115,29.8055556 C166.080529,29.9027778 166.404041,29.75 166.502501,29.4583333 C166.600962,29.1666667 166.446238,28.8541667 166.143825,28.7569444 C165.59526,28.5763889 165.102959,28.3055556 164.673954,27.9027778 L166.699422,26.7708333 C166.973704,26.6180556 167.065131,26.2777778 166.910408,26.0138889 C166.755685,25.75 166.404041,25.6597222 166.129759,25.8125 L164.111324,26.9236111 C163.970666,26.3611111 163.963633,25.8194444 164.076159,25.2708333 C164.139455,24.9722222 163.935502,24.6805556 163.626055,24.6180556 C163.316609,24.5555556 163.014195,24.75 162.950899,25.0486111 C162.78211,25.8680556 162.852439,26.7430556 163.077491,27.4930556 L158.555352,30.0416667 L158.555352,24.9722222 C159.328968,24.7847222 160.130716,24.4097222 160.770708,23.8541667 C161.002793,23.6527778 161.023891,23.2986111 160.819938,23.0694444 C160.615984,22.8402778 160.264341,22.8194444 160.025223,23.0208333 C159.60325,23.3888889 159.117982,23.6597222 158.555352,23.8194444 L158.555352,21.5555556 C158.555352,21.25 158.302168,21 157.992722,21 C157.683275,21 157.430092,21.25 157.430092,21.5555556 L157.430092,23.8263889 C156.867462,23.6666667 156.389226,23.3958333 155.960221,23.0208333 C155.728136,22.8194444 155.369459,22.8402778 155.165506,23.0694444 C154.961553,23.2986111 154.982651,23.6527778 155.214736,23.8541667 C155.854728,24.4097222 156.586147,24.7916667 157.430092,24.9722222 L157.430092,30.0416667 L152.893887,27.5 C153.118939,26.7430556 153.189268,25.8680556 153.027512,25.0555556 C152.964216,24.7569444 152.661802,24.5625 152.352356,24.625 C152.042909,24.6875 151.845989,24.9722222 151.902252,25.2777778 C152.014778,25.8263889 152.014778,26.3680556 151.867087,26.9305556 L149.855685,25.7916667 C149.581403,25.6388889 149.229759,25.7291667 149.075036,25.9930556 C148.920312,26.2569444 149.01174,26.5972222 149.286022,26.75 L151.31149,27.8819444 C150.882485,28.2847222 150.397216,28.5555556 149.848652,28.7361111 C149.546238,28.8333333 149.391515,29.1527778 149.489975,29.4375 C149.588436,29.7291667 149.918981,29.8819444 150.214361,29.7847222 C151.030175,29.5138889 151.747528,29.0833333 152.33829,28.4513889 L156.860429,30.9861111 L152.331257,33.5208333 C151.77566,32.9513889 151.023142,32.4583333 150.214361,32.1875 C149.911948,32.0902778 149.595468,32.25 149.489975,32.5416667 C149.391515,32.8333333 149.546238,33.1458333 149.848652,33.2430556 C150.390183,33.4236111 150.875452,33.6944444 151.304457,34.0972222 L149.286022,35.2291667 C149.01174,35.3819444 148.920312,35.7222222 149.075036,35.9861111 C149.229759,36.25 149.581403,36.3402778 149.855685,36.1875 L151.881153,35.0555556 C152.028843,35.6180556 152.028843,36.1597222 151.909285,36.7152778 C151.845989,37.0138889 152.049942,37.3055556 152.359389,37.3680556 C152.668835,37.4305556 152.971249,37.2361111 153.034545,36.9305556 C153.203334,36.1111111 153.168169,35.2916667 152.90092,34.4791667 L157.437125,31.9375 L157.437125,37.0138889 C156.59318,37.1944444 155.861761,37.5763889 155.221769,38.1319444 C154.989684,38.3333333 154.968585,38.6875 155.172539,38.9166667 C155.376492,39.1458333 155.728136,39.1666667 155.967254,38.9652778 C156.396259,38.5902778 156.874495,38.3194444 157.437125,38.1597222 L157.437125,40.4444444 C157.437125,40.75 157.690308,41 157.999755,41 C158.309201,41 158.562385,40.75 158.562385,40.4444444 L158.562385,38.1805556 C159.125015,38.3402778 159.60325,38.6111111 160.032256,38.9791667 C160.264341,39.1805556 160.615984,39.1597222 160.826971,38.9305556 C161.030924,38.7013889 161.009826,38.3472222 160.777741,38.1458333 C160.144782,37.5972222 159.343034,37.2152778 158.569418,37.0277778 L158.569418,31.9513889 L163.09859,34.4861111 C162.83134,35.2986111 162.803209,36.1180556 162.971998,36.9375 C163.035294,37.2361111 163.337707,37.4305556 163.647154,37.375 C163.9566,37.3125 164.160554,37.0208333 164.097258,36.7222222 C163.984732,36.1666667 163.984732,35.625 164.125389,35.0625 L166.150858,36.1944444 C166.42514,36.3472222 166.776783,36.2569444 166.931507,35.9930556 C167.079197,35.7291667 166.980737,35.3888889 166.706455,35.2361111 Z" id="Shape" fill="#344348" fill-rule="nonzero"></path>
                                    <path d="M27.543374,22.0659722 L24.4035858,20.3114583 C25.0709275,19.6871528 25.8257895,19.2673611 26.6681717,18.9875 C27.1385929,18.8368056 27.3792736,18.3524306 27.2261132,17.9003472 C27.0729528,17.4482639 26.5697115,17.2006944 26.0992902,17.3513889 C24.8302469,17.7604167 23.6706039,18.5354167 22.8063416,19.4180556 L15.7719032,15.5 L22.7954016,11.5819444 C23.714364,12.5614583 24.8302469,13.2395833 26.0992902,13.6486111 C26.5697115,13.7993056 27.0729528,13.5625 27.2261132,13.1104167 C27.3792736,12.6583333 27.1385929,12.1739583 26.6681717,12.0232639 C25.8148495,11.7434028 25.0490475,11.3236111 24.3817057,10.6993056 L27.532434,8.94479167 C27.9590951,8.70798611 28.1013155,8.18055556 27.8606348,7.77152778 C27.6199542,7.3625 27.0729528,7.22256944 26.6462917,7.459375 L23.5065034,9.18159722 C23.2877029,8.30972222 23.2767628,7.47013889 23.4518033,6.61979167 C23.5502635,6.15694444 23.2330027,5.70486111 22.7516414,5.60798611 C22.2702802,5.51111111 21.799859,5.8125 21.7013987,6.27534722 C21.438838,7.54548611 21.5482383,8.90173611 21.8983192,10.0642361 L14.8638808,14.0145833 L14.8638808,6.15694444 C16.0672839,5.86631944 17.3144472,5.28506944 18.3099898,4.42395833 C18.6710108,4.11180556 18.7038308,3.56284722 18.38657,3.20763889 C18.0693092,2.85243056 17.5223077,2.82013889 17.1503468,3.13229167 C16.493945,3.70277778 15.7390831,4.12256944 14.8638808,4.37013889 L14.8638808,0.861111111 C14.8638808,0.3875 14.4700397,0 13.9886785,0 C13.5073172,0 13.1134762,0.3875 13.1134762,0.861111111 L13.1134762,4.38090278 C12.2382739,4.13333333 11.4943519,3.71354167 10.8270102,3.13229167 C10.4659892,2.82013889 9.90804778,2.85243056 9.59078695,3.20763889 C9.27352612,3.56284722 9.3063462,4.11180556 9.66736715,4.42395833 C10.6629098,5.28506944 11.8006727,5.87708333 13.1134762,6.15694444 L13.1134762,14.0145833 L6.05715769,10.075 C6.4072386,8.90173611 6.51663889,7.54548611 6.26501823,6.28611111 C6.16655797,5.82326389 5.69613674,5.521875 5.21477548,5.61875 C4.73341422,5.715625 4.42709341,6.15694444 4.51461364,6.63055556 C4.6896541,7.48090278 4.6896541,8.32048611 4.4599135,9.19236111 L1.3310653,7.42708333 C0.90440418,7.19027778 0.357402746,7.33020833 0.116722115,7.73923611 C-0.123958516,8.14826389 0.0182618569,8.67569444 0.444922975,8.9125 L3.59565123,10.6670139 C2.92830949,11.2913194 2.17344751,11.7111111 1.32012527,11.9909722 C0.849704036,12.1416667 0.609023405,12.6368056 0.762183807,13.078125 C0.915344208,13.5302083 1.42952556,13.7670139 1.88900676,13.6163194 C3.15805009,13.1965278 4.27393301,12.5291667 5.19289542,11.5496528 L12.2273339,15.4784722 L5.18195539,19.4072917 C4.31769313,18.5246528 3.14711006,17.7604167 1.88900676,17.340625 C1.41858553,17.1899306 0.926284237,17.4375 0.762183807,17.8895833 C0.609023405,18.3416667 0.849704036,18.8260417 1.32012527,18.9767361 C2.16250748,19.2565972 2.91736946,19.6763889 3.58471121,20.3006944 L0.444922975,22.0552083 C0.0182618569,22.2920139 -0.123958516,22.8194444 0.116722115,23.2284722 C0.357402746,23.6375 0.90440418,23.7774306 1.3310653,23.540625 L4.48179356,21.7861111 C4.71153416,22.6579861 4.71153416,23.4975694 4.52555367,24.3586806 C4.42709341,24.8215278 4.74435425,25.2736111 5.22571551,25.3704861 C5.70707677,25.4673611 6.177498,25.1659722 6.27595826,24.6923611 C6.53851895,23.4222222 6.48381881,22.1520833 6.06809772,20.8927083 L13.1244162,16.953125 L13.1244162,24.8215278 C11.8116128,25.1013889 10.6738498,25.6934028 9.67830718,26.5545139 C9.31728623,26.8666667 9.28446615,27.415625 9.60172698,27.7708333 C9.91898781,28.1260417 10.4659892,28.1583333 10.8379502,27.8461806 C11.505292,27.2649306 12.2492139,26.8451389 13.1244162,26.5975694 L13.1244162,30.1388889 C13.1244162,30.6125 13.5182572,31 13.9996185,31 C14.4809798,31 14.8748208,30.6125 14.8748208,30.1388889 L14.8748208,26.6298611 C15.7500231,26.8774306 16.493945,27.2972222 17.1612868,27.8677083 C17.5223077,28.1798611 18.0693092,28.1475694 18.39751,27.7923611 C18.7147709,27.4371528 18.6819508,26.8881944 18.3209298,26.5760417 C17.3363273,25.7256944 16.089164,25.1336806 14.8857608,24.8430556 L14.8857608,16.9746528 L21.9311393,20.9034722 C21.5154182,22.1628472 21.4716581,23.4329861 21.7342188,24.703125 C21.832679,25.1659722 22.3031003,25.4673611 22.7844615,25.38125 C23.2658228,25.284375 23.5830836,24.8322917 23.4846234,24.3694444 C23.3095829,23.5083333 23.3095829,22.66875 23.5283835,21.796875 L26.6791117,23.5513889 C27.1057729,23.7881944 27.6527743,23.6482639 27.8934549,23.2392361 C28.1231955,22.8302083 27.9700351,22.3027778 27.543374,22.0659722 Z" id="Shape" fill="#010101" fill-rule="nonzero"></path>
                                    <path d="M38,39.7999284 L74.3014755,24 L112.871793,39.7999284 L74.3014755,55.5998569 L38,39.7999284 Z M38.0537807,40.3211047 L74.0287362,55.8157459 L74.0287362,107.089533 L38.0537807,91.6164164 L38.0537807,40.3211047 Z M112.996879,91.9168784 L74.6346369,107.286655 L74.6346369,55.6046801 L112.871793,39.7999284 L112.996879,91.9168784 Z" id="Combined-Shape" stroke="#88ECF9" fill="#88ECF9" stroke-linecap="round" stroke-linejoin="round"></path>
                                    <path d="M47,35.7999284 L83.3014755,20 L121.871793,35.7999284 L83.3014755,51.5998569 L47,35.7999284 Z M47.0537807,36.3211047 L83.0287362,51.8157459 L83.0287362,103.089533 L47.0537807,87.6164164 L47.0537807,36.3211047 Z M121.996879,87.9168784 L83.6346369,103.286655 L83.6346369,51.6046801 L121.871793,35.7999284 L121.996879,87.9168784 Z" id="Combined-Shape" stroke="#03212C" stroke-width="2" stroke-linecap="round" stroke-linejoin="round"></path>
                                    <path d="M105,74.2602783 L119.037155,68 L133.951631,74.2602783 L119.037155,80.5205566 L105,74.2602783 Z M105.020796,74.4667798 L118.931691,80.6060966 L118.931691,100.921896 L105.020796,94.7911077 L105.020796,74.4667798 Z M134,94.9101573 L119.165982,101 L119.165982,80.5224677 L133.951631,74.2602783 L134,94.9101573 Z" id="Combined-Shape" stroke="#88ECF9" fill="#88ECF9" stroke-linecap="round" stroke-linejoin="round"></path>
                                    <path d="M109,73.2602783 L123.037155,67 L137.951631,73.2602783 L123.037155,79.5205566 L109,73.2602783 Z M109.020796,73.4667798 L122.931691,79.6060966 L122.931691,99.9218961 L109.020796,93.7911077 L109.020796,73.4667798 Z M138,93.9101573 L123.165982,100 L123.165982,79.5224677 L137.951631,73.2602783 L138,93.9101573 Z" id="Combined-Shape" stroke="#03212C" stroke-width="2" stroke-linecap="round" stroke-linejoin="round"></path>
                                </g>
                            </g>
                        </g>
                    </g>
                </g>
            </g>
        </g>
    </g>
</svg>