<?xml version="1.0" encoding="UTF-8"?>
<svg width="470px" height="472px" viewBox="0 0 470 472" version="1.1" xmlns="http://www.w3.org/2000/svg" xmlns:xlink="http://www.w3.org/1999/xlink">
    <!-- Generator: Sketch 46.2 (44496) - http://www.bohemiancoding.com/sketch -->
    <title>ESS</title>
    <desc>Created with Sketch.</desc>
    <defs>
        <path d="M121.716,0.740666667 L125.843455,0.740666667 C105.943855,7.09316667 84.9904364,10.5719167 63.3169091,10.5719167 C41.4414,10.5719167 20.286,7.02258333 0.237109091,0.559166667 L33.7046182,0.559166667 C34.2490909,0.62975 34.8111273,0.730583333 35.4258545,0.730583333 L121.338382,0.730583333 C121.487673,0.730583333 121.610618,0.740666667 121.716,0.740666667 Z" id="path-1"></path>
        <path d="M127.583463,10.461 L93.7863432,10.4206667 C93.2367966,10.30975 92.6606589,10.30975 92.0490667,10.2290833 L5.27387527,10.2795 C5.18523871,10.2290833 5.04342022,10.2694167 4.92819269,10.2694167 L0.797729032,10.2694167 C20.8827733,3.90683333 42.0225927,0.428083333 63.9069591,0.428083333 C85.9774624,0.428083333 107.330009,3.97741667 127.583463,10.461 Z" id="path-3"></path>
    </defs>
    <g id="Logo" stroke="none" stroke-width="1" fill="none" fill-rule="evenodd">
        <g id="Kapil's-Rendition" transform="translate(-563.000000, -694.000000)">
            <g id="ESS" transform="translate(563.000000, 694.000000)">
                <g id="Group-3" transform="translate(48.000000, 28.000000)" fill="#1CA8C7">
                    <path d="M268.319358,194.155402 L268.194903,194.155402 C267.848205,194.119739 267.519287,194.092992 267.101473,194.155402 C266.35474,194.191064 265.714683,194.128655 264.959061,194.155402 L110.074235,194.155402 C98.8465737,194.13757 88.0456173,192.274194 78.0802905,187.896598 C68.1238533,183.545749 59.4208604,177.652488 52.1757744,170.395129 C44.9395781,163.173433 39.0457229,154.462818 34.7431197,144.486179 C30.3605094,134.411466 28.1380904,123.587837 28.1380904,112.345172 C28.1380904,101.138169 30.3605094,90.3234554 34.7431197,80.2130804 C39.0635022,70.2542718 44.9217988,61.5347421 52.1757744,54.2862986 C59.4741985,46.9843611 68.1505223,41.1089315 78.0180627,36.8026607 C88.0189483,32.4518115 98.7932357,30.2139772 110.100904,30.1961458 L260.398657,29.9286756 C264.674591,29.9286756 267.99933,28.6091558 270.817357,25.7472242 C273.706502,22.84963 275.031064,19.559746 275.031064,15.3337163 C275.075512,11.0898552 273.706502,7.76430853 270.799578,4.85779861 C267.945992,2.01369841 264.647922,0.649600198 260.398657,0.649600198 L127.77358,0.49803373 C127.640235,0.49803373 127.542448,0.49803373 127.409103,0.480202381 L105.513831,0.480202381 C86.0632196,0.480202381 67.8927217,5.90984821 52.2291125,15.1732341 C44.2106247,20.7455308 36.5743929,26.8171052 29.3293069,33.3522946 C11.2832645,52.3248502 0.09116238,77.9395833 0.09116238,106.175525 L0.09116238,118.381083 C0.09116238,176.645017 47.3753494,223.826767 105.442713,223.835683 L105.576059,223.835683 C105.913866,223.835683 106.313902,223.880261 106.687268,223.835683 C107.398442,223.835683 108.100727,223.826767 108.811901,223.835683 L263.714506,223.835683 C274.933277,223.871345 285.707565,225.699059 295.744009,230.067739 C305.638218,234.445335 314.341211,240.338596 321.612966,247.578124 C328.831383,254.817652 334.68968,263.572844 339.0634,273.49599 C343.437121,283.579618 345.615092,294.412163 345.65065,305.654828 C345.615092,316.879663 343.437121,327.676545 339.045621,337.778004 C334.743018,347.727897 328.831383,356.438511 321.612966,363.704786 C314.296763,371.03347 305.59377,376.873237 295.761788,381.197339 C285.769792,385.557104 274.995505,387.955421 263.696727,387.991083 L113.363415,387.991083 C109.140819,387.955421 105.833859,389.373013 102.971383,392.270607 C100.073349,395.159286 98.731008,398.475917 98.731008,402.701946 C98.731008,406.910145 100.100018,410.244607 102.971383,413.160033 C105.80719,415.995217 109.140819,417.457388 113.372304,417.457388 L268.25713,417.457388 C287.716631,417.457388 305.896019,412.116899 321.550738,402.853513 C329.542557,397.254469 337.178789,391.200726 344.423875,384.674452 C362.487697,365.701897 373.670909,340.060417 373.670909,311.824475 L373.670909,299.627832 C373.697578,241.354983 326.404502,194.155402 268.319358,194.155402" id="Fill-1"></path>
                </g>
                <path d="M322.787052,322.151973 C319.936884,319.301365 316.60575,318.044264 312.366126,318 L155.651432,318 C109.772638,318.637403 70.8055001,348.887495 57,390.097381 C64.4282498,398.613796 72.4710669,406.616747 81.0661041,414 C82.1616374,408.157138 83.8450177,402.447068 86.2498468,396.976024 C90.5785391,387.131686 96.4035695,378.51789 103.591336,371.36481 C110.859264,364.114349 119.59681,358.21837 129.625838,353.871634 C139.690492,349.507193 150.485503,347.240871 161.734759,347.240871 L312.366126,347.240871 C316.60575,347.196606 319.936884,345.744744 322.822679,342.876429 C322.822679,342.849871 322.822679,342.849871 322.822679,342.849871 C325.672846,339.999262 327.008863,336.679454 326.999956,332.518628 C326.999956,328.313537 325.69066,325.037993 322.787052,322.151973" id="Fill-4" fill="#1CA8C7"></path>
                <path d="M416,185.832365 C435.780772,199.919352 452.499918,218.073957 464.764174,239.037154 C466.459162,241.969009 468.083155,244.971298 469.62728,248 C469.858012,243.68586 470,239.345307 470,234.969537 C470,204.215883 463.938866,174.879732 453.067872,148 C442.747083,162.377531 430.225472,175.187885 416,185.832365" id="Fill-6" fill="#1CA8C7"></path>
                <g id="Group-10" transform="translate(144.000000, 59.000000)" fill="#1CA8C7">
                    <path d="M245.84078,0.209641026 C244.740138,6.04882051 243.062546,11.7380513 240.665986,17.1891282 C236.334427,27.0681026 230.485046,35.6769231 223.286491,42.8038974 C216.043555,49.9837949 207.353807,55.8229744 197.483532,60.1009231 C187.426858,64.4670769 176.668968,66.7339487 165.431766,66.7427692 L15.3627523,66.7427692 C11.1465826,66.7604103 7.82690367,68.2246154 4.95990826,71.073641 C2.09291284,73.9579487 0.761490826,77.2391795 0.734862385,81.4024615 C0.725986239,85.5922051 2.0840367,88.8557949 4.94215596,91.7048205 C7.78252294,94.5803077 11.1022018,95.8945641 15.3627523,95.8945641 L159.360482,95.841641 C159.5025,95.824 159.61789,95.824 159.751032,95.8328205 L171.529679,95.8151795 C217.250711,95.1712821 256.048349,65.1021538 269.859633,24.0426667 C262.430298,15.5308718 254.415138,7.56594872 245.84078,0.209641026" id="Fill-8"></path>
                </g>
                <g id="Group-13" transform="translate(172.000000, 461.000000)">
                    <mask id="mask-2" fill="white">
                        <use xlink:href="#path-1"></use>
                    </mask>
                    <g id="Clip-12"></g>
                    <path d="M121.716,0.740666667 C121.610618,0.740666667 121.487673,0.730583333 121.338382,0.730583333 L35.4258545,0.730583333 C34.8111273,0.730583333 34.2490909,0.62975 33.7046182,0.559166667 L0.237109091,0.559166667 C20.286,7.02258333 41.4414,10.5719167 63.3169091,10.5719167 C84.9904364,10.5719167 105.943855,7.09316667 125.843455,0.740666667 L121.716,0.740666667" id="Fill-11" fill="#1CA8C7" mask="url(#mask-2)"></path>
                </g>
                <path d="M54,286.177625 C34.201479,272.10316 17.5178307,253.891735 5.24470008,232.995687 C3.52308956,230.047003 1.9168447,227.036705 0.381594084,224 C0.141988496,228.330605 0,232.661209 0,237.044626 C0,267.798961 6.04338537,297.14497 16.958751,324 C27.2617913,309.608661 39.7745275,296.810492 54,286.177625" id="Fill-14" fill="#1CA8C7"></path>
                <path d="M441.291782,352 C452.457225,332.470811 460.844664,311.178323 466,288.654186 C455.992059,250.100873 430.963302,216.084286 395.784141,195.225977 C392.970521,193.533566 391.207556,190.512035 391.180845,187.224681 C391.154133,183.901883 392.810251,180.827188 395.650584,179.07275 C416.476718,166.01194 433.367344,148.618202 445.57454,128.513062 C440.392492,118.553529 434.507039,109.037037 428.025027,99.9901667 C421.970401,113.529459 413.565155,126.032039 402.809289,136.877651 C402.622308,137.063727 402.453134,137.258665 402.266153,137.418159 C379.169534,160.42078 348.469017,173.339817 315.880881,173.773996 C315.791842,173.773996 315.774034,173.791717 315.756227,173.773996 L303.495608,173.773996 C303.344243,173.773996 303.273012,173.738553 303.139454,173.773996 L201.724462,173.773996 C201.377211,173.773996 201.021056,173.773996 200.664902,173.773996 L159.021538,173.773996 C149.752617,173.738553 141.489833,170.424616 135.079052,164.035983 C128.694983,157.673934 125.320419,149.468839 125.311515,140.3245 C125.311515,131.056109 128.570328,123.090256 135.043436,116.586433 C135.070148,116.55099 135.105763,116.524408 135.105763,116.524408 C141.516544,110.135775 149.788232,106.626901 159.048249,106.635762 L309.58585,106.635762 C318.204789,106.626901 326.467573,104.819299 334.089279,101.558527 C341.897967,98.1294 348.469017,93.7255855 354.105162,88.0989815 C359.661172,82.5875679 364.219949,75.9331118 367.603417,68.1976389 C370.737577,60.9140665 372.420407,53.0811249 372.553965,44.9203339 C361.308386,36.9633412 349.359403,29.9367318 336.778246,24 C341.034292,29.7240727 343.331488,36.325364 343.286969,43.8747602 C343.304777,53.0368209 339.921309,61.2419159 333.510528,67.595105 C333.510528,67.6039657 333.49272,67.6394089 333.448201,67.6571305 C327.108651,73.9748764 318.836963,77.4483075 309.58585,77.4217252 L159.021538,77.4217252 C150.31356,77.4217252 142.113103,79.3002134 134.535916,82.5875679 C126.736133,85.9901127 120.138371,90.3584839 114.466611,95.9939487 C108.972927,101.487641 104.431958,108.204122 101.012875,115.930735 C97.6561184,123.683929 96.0267116,131.632061 96,140.306778 C96,148.830861 97.6917338,157.044817 101.030682,164.656239 C104.423054,172.338547 108.9106,179.07275 114.493322,184.548721 C120.173986,190.210768 126.736133,194.570279 134.553724,197.999406 C142.139815,201.313343 150.402599,202.598158 158.985922,202.607018 L314.153531,202.607018 C314.678859,202.571575 315.150764,202.607018 315.64938,202.607018 C316.147997,202.562714 316.637709,202.607018 317.145229,202.607018 L317.341114,202.607018 C317.394537,202.607018 317.412345,202.589297 317.439057,202.607018 C386.194682,202.589297 442.075322,258.022422 442.075322,326.454332 L442.075322,338.540454 C442.075322,343.112624 441.781494,347.587325 441.291782,352" id="Fill-16" fill="#1CA8C7"></path>
                <path d="M371.978222,307.30454 C368.568042,299.658915 364.053784,292.943522 358.497774,287.44186 C352.834918,281.78959 346.272771,277.37763 338.45518,273.993355 C330.82457,270.724252 322.606305,269.430786 313.987366,269.395349 L158.837565,269.395349 C158.338948,269.368771 157.804717,269.386489 157.386235,269.395349 C156.869811,269.430786 156.371195,269.368771 155.872579,269.395349 L155.632174,269.395349 C155.596559,269.368771 155.569847,269.395349 155.534232,269.395349 C86.8053183,269.395349 30.9157743,213.988926 30.9157743,145.612403 L30.9246781,133.483942 C30.9246781,128.930233 31.2363133,124.429679 31.6815064,120 C20.5605824,139.552602 12.1553363,160.83278 7,183.379845 C17.0435567,221.882614 42.0456022,255.884828 77.1891469,276.775194 C80.029479,278.449612 81.774636,281.488372 81.8369631,284.748616 C81.8814824,288.106312 80.1986524,291.162791 77.376128,292.899225 C56.5321863,305.975637 39.6326555,323.348837 27.443268,343.477298 C32.6075081,353.408638 38.4662495,362.923588 44.9749729,372.00443 C51.0295993,358.467331 59.4348454,345.940199 70.199615,335.122924 C93.4119841,311.760797 124.263867,298.657807 157.128023,298.232558 C157.19035,298.232558 157.225966,298.20598 157.288293,298.232558 L169.522199,298.232558 C169.63795,298.232558 169.726988,298.232558 169.860546,298.232558 L271.311154,298.232558 C271.622789,298.20598 271.978944,298.232558 272.326194,298.232558 L313.987366,298.232558 C323.256287,298.250277 331.510167,301.554817 337.90314,307.933555 C344.305017,314.303433 347.706293,322.516058 347.715197,331.703212 C347.715197,340.934662 344.411864,348.934662 337.920948,355.437431 C331.483456,361.842746 323.247383,365.404208 313.987366,365.404208 L163.396342,365.404208 C154.813019,365.404208 146.559138,367.16722 138.910721,370.454042 C131.084226,373.873754 124.548791,378.285714 118.87703,383.875969 C113.312116,389.386489 108.788954,396.057586 105.405487,403.782946 C102.226808,411.083056 100.606305,418.888151 100.437132,427.03876 C111.700517,435.0299 123.658405,442.037652 136.248466,448 C131.983516,442.276855 129.695223,435.632337 129.695223,428.13732 C129.695223,418.967885 133.069787,410.772979 139.471664,404.394241 C139.525087,404.341085 139.525087,404.341085 139.525087,404.341085 C145.909157,397.997785 154.163037,394.524917 163.405246,394.551495 L313.987366,394.551495 C322.606305,394.551495 330.886897,392.708749 338.472988,389.386489 C346.272771,386.028793 352.81711,381.599114 358.524486,375.973422 C364.053784,370.48948 368.58585,363.774086 371.95151,356.039867 C375.343882,348.314507 377,340.323367 377,331.667774 C376.973288,323.162791 375.272651,314.967885 371.978222,307.30454" id="Fill-18" fill="#1CA8C7"></path>
                <g id="Group-22" transform="translate(172.000000, 0.000000)">
                    <mask id="mask-4" fill="white">
                        <use xlink:href="#path-3"></use>
                    </mask>
                    <g id="Clip-21"></g>
                    <path d="M127.583463,10.461 C107.330009,3.97741667 85.9774624,0.428083333 63.9069591,0.428083333 C42.0225927,0.428083333 20.8827733,3.90683333 0.797729032,10.2694167 L4.92819269,10.2694167 C5.04342022,10.2694167 5.18523871,10.2290833 5.27387527,10.2795 L92.0490667,10.2290833 C92.6606589,10.30975 93.2367966,10.30975 93.7863432,10.4206667 L127.583463,10.461" id="Fill-20" fill="#1CA8C7" mask="url(#mask-4)"></path>
                </g>
            </g>
        </g>
    </g>
</svg>
