<?xml version="1.0" encoding="UTF-8"?>
<svg width="108px" height="76px" viewBox="0 0 108 76" version="1.1" xmlns="http://www.w3.org/2000/svg" xmlns:xlink="http://www.w3.org/1999/xlink">
    <!-- Generator: Sketch 47.1 (45422) - http://www.bohemiancoding.com/sketch -->
    <title>Group 9</title>
    <desc>Created with Sketch.</desc>
    <defs></defs>
    <g id="Pivot" stroke="none" stroke-width="1" fill="none" fill-rule="evenodd">
        <g id="Setup-View-[Template]---Choose" transform="translate(-367.000000, -426.000000)">
            <g id="Group-9" transform="translate(367.000000, 428.000000)">
                <g id="bananas_black_white_line_art" transform="translate(0.000000, 4.000000)" fill="#88ECF9">
                    <g id="g2783" transform="translate(0.000000, 1.309524)">
                        <path d="M66.1002478,0.0956100997 L60.7813998,8.10612 C60.7813998,8.10612 56.5203738,9.16852266 54.3605081,10.5163596 C52.200641,11.8641965 45.4138786,16.838572 30.3986065,15.7713936 C15.3833345,14.7042167 13.1530831,11.4834723 9.89895741,11.3656078 C6.64483176,11.2477449 1.7238567,11.8152498 0.531102662,12.7271199 C-0.661651378,13.6389914 0.764528682,16.3857842 0.764528682,16.3857842 C0.764528682,16.3857842 5.12848152,26.2384864 21.0143181,30.2809126 C36.9001533,34.3233387 55.7076538,25.9771454 55.7076538,25.9771454 L68.8424364,1.76491309 L66.1002478,0.0956100997 Z" id="path6424"></path>
                    </g>
                    <g id="g3011" transform="translate(3.280000, 0.000000)">
                        <g id="g9941" transform="translate(16.357403, 5.690487)">
                            <path d="M47.9246878,1.26181445 C47.9246878,1.26181445 50.9917008,9.28686041 50.1154114,11.3295994 C49.2391219,13.3723384 44.1274336,25.0451325 34.6342982,29.4224303 C25.1411628,33.7997281 0.751107099,33.2160884 0.166914149,32.0488089 C-0.417278801,30.8815295 0.166914149,43.1379634 14.9177861,47.6611711 C29.6686581,52.1843788 48.5218849,42.2760311 51.8679902,39.0524854 C56.1033891,34.9670075 64.1360422,24.4614928 61.7992704,16.5823567 C59.4624986,8.7032207 57.7099197,11.0377795 56.3954856,8.84913063 C55.0810514,6.66048173 53.6205691,2.42909386 53.6205691,0.678174747 C53.6205691,-1.07274437 48.070736,1.26181445 47.9246878,1.26181445 Z" id="path12644"></path>
                        </g>
                        <g id="g3002" transform="translate(0.000000, 3.210018)">
                            <g id="g9893" transform="translate(42.500037, 3.501838)">
                                <path d="M21.3439086,0.0945350414 C21.3439086,0.0945350414 21.9281015,8.55731078 19.5913297,10.3082299 C17.2545579,12.059149 0.0208659117,29.4224303 0.0208659117,29.4224303 L3.23392714,33.0701784 L24.1188251,18.9169156 L25.7253557,0.386354894 L21.3439086,0.0945350414 Z" id="path17976"></path>
                            </g>
                            <g id="g9903">
                                <path d="M65.0123316,5.20138247 C65.0123316,5.20138247 68.9339434,7.83113187 69.6641846,10.4575105 C70.3944258,13.0838892 66.1807175,19.6464652 56.9796785,26.9419615 C47.7786396,34.2374578 21.0518121,46.9316214 3.0878789,33.0701784 C-2.02380941,27.2337814 0.897155337,23.4401233 0.897155337,23.4401233 C0.897155337,23.4401233 3.81622876,23.0183954 4.98650599,23.1483034 C6.44698836,22.7105736 13.3112555,23.1483034 19.737378,23.4401233 C28.3411381,23.2711858 51.8679902,12.3509689 56.3954856,8.119581 C56.3954856,8.119581 61.9453186,1.40772438 62.0913668,0.240444968 C62.2374151,-0.926834444 66.0346693,2.57500379 66.1807175,3.59637328 C66.3267657,4.61774276 65.0123316,5.05547254 65.0123316,5.20138247 Z" id="path1933"></path>
                            </g>
                        </g>
                        <g id="g9946" transform="translate(61.486308, 0.000000)">
                            <path d="M3.72038461,0.0620657054 C2.88060724,-0.156799184 -0.0414543317,2.14914378 0.00999846234,2.92114153 C0.0613826137,3.69211207 2.85298514,6.19188763 4.62137663,6.79561913 C5.20556958,6.94152906 8.4186308,6.6497092 8.56467904,6.0660695 C8.71072728,5.48242979 8.71072728,3.00196104 8.12653433,2.41832134 C7.54234138,1.83468163 4.69755539,0.31673835 3.72038461,0.0620657054 Z" id="path23294"></path>
                            <path d="M3.72039483,0.0620146369 C2.88061746,-0.156850253 -0.0414441083,2.14909272 0.0100086857,2.92109046 C0.0613928371,3.69206101 2.85299536,6.19183656 4.62138685,6.79556806 C5.2055798,6.94147799 8.41864103,6.64965813 8.56468926,6.06601843 C8.7107375,5.48237872 8.7107375,3.00190997 8.12654455,2.41827027 C7.5423516,1.83463056 4.69756561,0.316687282 3.72039483,0.0620146369 Z" id="path22407"></path>
                        </g>
                    </g>
                </g>
                <g id="bananas_black_white_line_art" transform="translate(4.000000, 0.000000)" stroke="#344348">
                    <g id="g2783" transform="translate(0.000000, 1.309524)" stroke-width="2">
                        <path d="M66.1002478,0.0956100997 L61.1196237,7.66454632 C61.1196237,7.66454632 56.5203738,9.16852266 54.3605081,10.5163596 C52.200641,11.8641965 45.4138786,16.838572 30.3986065,15.7713936 C15.3833345,14.7042167 13.1530831,11.4834723 9.89895741,11.3656078 C6.64483176,11.2477449 1.7238567,11.8152498 0.531102662,12.7271199 C-0.661651378,13.6389914 0.764528682,16.3857842 0.764528682,16.3857842 C0.764528682,16.3857842 5.45470947,24.125683 17.7658851,25.0485224 C29.0858926,25.8970644 51.3561139,15.2077964 45.5494073,17.8570872 L68.8424364,1.76491309 L66.1002478,0.0956100997 Z" id="path6424"></path>
                    </g>
                    <g id="g3011" transform="translate(3.280000, 0.000000)">
                        <g id="g9941" transform="translate(16.357403, 5.690487)" stroke-width="2">
                            <path d="M47.9246878,1.26181445 C47.9246878,1.26181445 50.9917008,9.28686041 50.1154114,11.3295994 C49.2391219,13.3723384 44.1274336,25.0451325 34.6342982,29.4224303 C25.1411628,33.7997281 0.751107099,33.2160884 0.166914149,32.0488089 C-0.417278801,30.8815295 0.166914149,43.1379634 14.9177861,47.6611711 C29.6686581,52.1843788 48.5218849,42.2760311 51.8679902,39.0524854 C56.1033891,34.9670075 64.1360422,24.4614928 61.7992704,16.5823567 C59.4624986,8.7032207 57.7099197,11.0377795 56.3954856,8.84913063 C55.0810514,6.66048173 53.6205691,2.42909386 53.6205691,0.678174747 C53.6205691,-1.07274437 48.070736,1.26181445 47.9246878,1.26181445 Z" id="path12644"></path>
                        </g>
                        <g id="g3002" transform="translate(0.000000, 3.210018)" stroke-width="2">
                            <g id="g9903">
                                <path d="M65.0123316,5.20138247 C65.0123316,5.20138247 66.1197408,8.75145649 66.849982,11.3778352 C67.5802232,14.0042138 63.2830577,18.6468181 56.9796785,26.9419615 C51.9939181,33.5031403 38.4955581,36.1558701 16.4845986,34.9001511 C16.2328698,35.2895798 16.5803288,36.6402467 17.5269757,38.9521516 C12.4448781,38.2787592 7.50184933,36.476114 3.0878789,33.0701784 C-2.02380941,27.2337814 0.897155337,23.4401233 0.897155337,23.4401233 C0.897155337,23.4401233 3.81622876,23.0183954 4.98650599,23.1483034 C6.44698836,22.7105736 13.3112555,23.1483034 19.737378,23.4401233 C28.3411381,23.2711858 51.8679902,12.3509689 56.3954856,8.119581 C56.3954856,8.119581 61.9453186,1.40772438 62.0913668,0.240444968 C62.2374151,-0.926834444 66.0346693,2.57500379 66.1807175,3.59637328 C66.3267657,4.61774276 65.0123316,5.05547254 65.0123316,5.20138247 Z" id="path1933"></path>
                            </g>
                        </g>
                        <g id="g9946" transform="translate(61.486308, 0.000000)">
                            <path d="M3.72038461,0.0620657054 C2.88060724,-0.156799184 -0.0414543317,2.14914378 0.00999846234,2.92114153 C0.0613826137,3.69211207 2.85298514,6.19188763 4.62137663,6.79561913 C5.20556958,6.94152906 8.4186308,6.6497092 8.56467904,6.0660695 C8.71072728,5.48242979 8.71072728,3.00196104 8.12653433,2.41832134 C7.54234138,1.83468163 4.69755539,0.31673835 3.72038461,0.0620657054 Z" id="path23294" stroke-width="4"></path>
                            <path d="M3.72039483,0.0620146369 C2.88061746,-0.156850253 -0.0414441083,2.14909272 0.0100086857,2.92109046 C0.0613928371,3.69206101 2.85299536,6.19183656 4.62138685,6.79556806 C5.2055798,6.94147799 8.41864103,6.64965813 8.56468926,6.06601843 C8.7107375,5.48237872 8.7107375,3.00190997 8.12654455,2.41827027 C7.5423516,1.83463056 4.69756561,0.316687282 3.72039483,0.0620146369 Z" id="path22407"></path>
                        </g>
                    </g>
                </g>
                <path d="M93.3254141,55.0572188 L91.0010625,55.0572188 L90.1283516,54.3286094 C92.8896563,50.9774844 94.6336172,46.751125 94.6336172,41.9429141 C94.6334844,31.451125 86.2049375,23 75.7444922,23 C65.4272187,23 57,31.451125 57,41.9429141 C57,52.4347031 65.4272187,60.8856953 75.8892578,60.8856953 C80.5391562,60.8856953 84.8980625,59.1369531 88.239625,56.3690078 L89.1110078,57.09775 L89.1110078,59.4287422 L103.641094,74 L108,69.6286094 L93.3254141,55.0572188 Z M76.5000686,56 C68.9999848,56 63,49.9998025 63,42.4999316 C63,34.9997873 68.9999848,29 76.5000686,29 C83.9998781,29 90,34.9997873 90,42.4999316 C90,49.9998025 83.9998781,56 76.5000686,56 Z" id="Shape" fill="#344348" fill-rule="nonzero"></path>
            </g>
        </g>
    </g>
</svg>